<?xml version="1.0" encoding="utf-8" standalone="no"?>
<!DOCTYPE svg PUBLIC "-//W3C//DTD SVG 1.1//EN"
  "http://www.w3.org/Graphics/SVG/1.1/DTD/svg11.dtd">
<svg xmlns:xlink="http://www.w3.org/1999/xlink" width="415.37625pt" height="238.765pt" viewBox="0 0 415.37625 238.765" xmlns="http://www.w3.org/2000/svg" version="1.1">
 <metadata>
  <rdf:RDF xmlns:dc="http://purl.org/dc/elements/1.1/" xmlns:cc="http://creativecommons.org/ns#" xmlns:rdf="http://www.w3.org/1999/02/22-rdf-syntax-ns#">
   <cc:Work>
    <dc:type rdf:resource="http://purl.org/dc/dcmitype/StillImage"/>
    <dc:date>2026-04-29T19:24:00.577852</dc:date>
    <dc:format>image/svg+xml</dc:format>
    <dc:creator>
     <cc:Agent>
      <dc:title>Matplotlib v3.10.8, https://matplotlib.org/</dc:title>
     </cc:Agent>
    </dc:creator>
   </cc:Work>
  </rdf:RDF>
 </metadata>
 <defs>
  <style type="text/css">*{stroke-linejoin: round; stroke-linecap: butt}</style>
 </defs>
 <g id="figure_1">
  <g id="patch_1">
   <path d="M 0 238.765 
L 415.37625 238.765 
L 415.37625 0 
L 0 0 
z
" style="fill: #ffffff"/>
  </g>
  <g id="axes_1">
   <g id="patch_2">
    <path d="M 51.872656 196.99 
L 372.54625 196.99 
L 372.54625 7.2 
L 51.872656 7.2 
z
" style="fill: #ffffff"/>
   </g>
   <g id="matplotlib.axis_1">
    <g id="xtick_1">
     <g id="line2d_1">
      <defs>
       <path id="mc5ff97354d" d="M 0 0 
L 0 3.5 
" style="stroke: #000000; stroke-width: 0.8"/>
      </defs>
      <g>
       <use xlink:href="#mc5ff97354d" x="66.448729" y="196.99" style="stroke: #000000; stroke-width: 0.8"/>
      </g>
     </g>
     <g id="text_1">
      <!-- 0.0 -->
      <g transform="translate(58.814901 212.745312) scale(0.11 -0.11)">
       <defs>
        <path id="NotoSansCJKjp-Regular-30" d="M 1779 -83 
C 2669 -83 3238 723 3238 2362 
C 3238 3987 2669 4774 1779 4774 
C 883 4774 320 3987 320 2362 
C 320 723 883 -83 1779 -83 
z
M 1779 390 
C 1248 390 883 986 883 2362 
C 883 3731 1248 4314 1779 4314 
C 2310 4314 2675 3731 2675 2362 
C 2675 986 2310 390 1779 390 
z
" transform="scale(0.015625)"/>
        <path id="NotoSansCJKjp-Regular-2e" d="M 890 -83 
C 1120 -83 1312 96 1312 358 
C 1312 627 1120 806 890 806 
C 653 806 467 627 467 358 
C 467 96 653 -83 890 -83 
z
" transform="scale(0.015625)"/>
       </defs>
       <use xlink:href="#NotoSansCJKjp-Regular-30"/>
       <use xlink:href="#NotoSansCJKjp-Regular-2e" transform="translate(55.499985 0)"/>
       <use xlink:href="#NotoSansCJKjp-Regular-30" transform="translate(83.299973 0)"/>
      </g>
     </g>
    </g>
    <g id="xtick_2">
     <g id="line2d_2">
      <g>
       <use xlink:href="#mc5ff97354d" x="102.88891" y="196.99" style="stroke: #000000; stroke-width: 0.8"/>
      </g>
     </g>
     <g id="text_2">
      <!-- 0.1 -->
      <g transform="translate(95.255082 212.745312) scale(0.11 -0.11)">
       <defs>
        <path id="NotoSansCJKjp-Regular-31" d="M 563 0 
L 3136 0 
L 3136 486 
L 2195 486 
L 2195 4691 
L 1747 4691 
C 1491 4544 1190 4435 774 4358 
L 774 3987 
L 1613 3987 
L 1613 486 
L 563 486 
L 563 0 
z
" transform="scale(0.015625)"/>
       </defs>
       <use xlink:href="#NotoSansCJKjp-Regular-30"/>
       <use xlink:href="#NotoSansCJKjp-Regular-2e" transform="translate(55.499985 0)"/>
       <use xlink:href="#NotoSansCJKjp-Regular-31" transform="translate(83.299973 0)"/>
      </g>
     </g>
    </g>
    <g id="xtick_3">
     <g id="line2d_3">
      <g>
       <use xlink:href="#mc5ff97354d" x="139.329091" y="196.99" style="stroke: #000000; stroke-width: 0.8"/>
      </g>
     </g>
     <g id="text_3">
      <!-- 0.2 -->
      <g transform="translate(131.695263 212.745312) scale(0.11 -0.11)">
       <defs>
        <path id="NotoSansCJKjp-Regular-32" d="M 282 0 
L 3232 0 
L 3232 506 
L 1933 506 
C 1696 506 1408 480 1165 461 
C 2266 1504 3008 2458 3008 3398 
C 3008 4230 2477 4774 1638 4774 
C 1043 4774 634 4506 256 4090 
L 595 3757 
C 858 4070 1184 4301 1568 4301 
C 2150 4301 2432 3910 2432 3373 
C 2432 2566 1754 1632 282 346 
L 282 0 
z
" transform="scale(0.015625)"/>
       </defs>
       <use xlink:href="#NotoSansCJKjp-Regular-30"/>
       <use xlink:href="#NotoSansCJKjp-Regular-2e" transform="translate(55.499985 0)"/>
       <use xlink:href="#NotoSansCJKjp-Regular-32" transform="translate(83.299973 0)"/>
      </g>
     </g>
    </g>
    <g id="xtick_4">
     <g id="line2d_4">
      <g>
       <use xlink:href="#mc5ff97354d" x="175.769272" y="196.99" style="stroke: #000000; stroke-width: 0.8"/>
      </g>
     </g>
     <g id="text_4">
      <!-- 0.3 -->
      <g transform="translate(168.135444 212.745312) scale(0.11 -0.11)">
       <defs>
        <path id="NotoSansCJKjp-Regular-33" d="M 1683 -83 
C 2522 -83 3194 416 3194 1254 
C 3194 1901 2752 2310 2202 2445 
L 2202 2477 
C 2701 2650 3034 3034 3034 3603 
C 3034 4346 2458 4774 1664 4774 
C 1126 4774 710 4538 358 4218 
L 672 3846 
C 941 4115 1267 4301 1645 4301 
C 2138 4301 2438 4006 2438 3558 
C 2438 3053 2112 2662 1139 2662 
L 1139 2214 
C 2227 2214 2598 1843 2598 1274 
C 2598 736 2208 403 1645 403 
C 1114 403 762 659 486 941 
L 186 563 
C 493 224 954 -83 1683 -83 
z
" transform="scale(0.015625)"/>
       </defs>
       <use xlink:href="#NotoSansCJKjp-Regular-30"/>
       <use xlink:href="#NotoSansCJKjp-Regular-2e" transform="translate(55.499985 0)"/>
       <use xlink:href="#NotoSansCJKjp-Regular-33" transform="translate(83.299973 0)"/>
      </g>
     </g>
    </g>
    <g id="xtick_5">
     <g id="line2d_5">
      <g>
       <use xlink:href="#mc5ff97354d" x="212.209453" y="196.99" style="stroke: #000000; stroke-width: 0.8"/>
      </g>
     </g>
     <g id="text_5">
      <!-- 0.4 -->
      <g transform="translate(204.575625 212.745312) scale(0.11 -0.11)">
       <defs>
        <path id="NotoSansCJKjp-Regular-34" d="M 2176 0 
L 2726 0 
L 2726 1293 
L 3354 1293 
L 3354 1760 
L 2726 1760 
L 2726 4691 
L 2080 4691 
L 128 1677 
L 128 1293 
L 2176 1293 
L 2176 0 
z
M 2176 1760 
L 736 1760 
L 1805 3360 
C 1939 3590 2067 3827 2182 4051 
L 2208 4051 
C 2195 3814 2176 3430 2176 3200 
L 2176 1760 
z
" transform="scale(0.015625)"/>
       </defs>
       <use xlink:href="#NotoSansCJKjp-Regular-30"/>
       <use xlink:href="#NotoSansCJKjp-Regular-2e" transform="translate(55.499985 0)"/>
       <use xlink:href="#NotoSansCJKjp-Regular-34" transform="translate(83.299973 0)"/>
      </g>
     </g>
    </g>
    <g id="xtick_6">
     <g id="line2d_6">
      <g>
       <use xlink:href="#mc5ff97354d" x="248.649634" y="196.99" style="stroke: #000000; stroke-width: 0.8"/>
      </g>
     </g>
     <g id="text_6">
      <!-- 0.5 -->
      <g transform="translate(241.015806 212.745312) scale(0.11 -0.11)">
       <defs>
        <path id="NotoSansCJKjp-Regular-35" d="M 1677 -83 
C 2464 -83 3213 499 3213 1523 
C 3213 2560 2573 3021 1798 3021 
C 1517 3021 1306 2950 1094 2835 
L 1216 4192 
L 2982 4192 
L 2982 4691 
L 704 4691 
L 550 2502 
L 864 2304 
C 1133 2483 1331 2579 1645 2579 
C 2234 2579 2618 2182 2618 1510 
C 2618 826 2176 403 1619 403 
C 1075 403 730 653 467 922 
L 173 538 
C 493 224 941 -83 1677 -83 
z
" transform="scale(0.015625)"/>
       </defs>
       <use xlink:href="#NotoSansCJKjp-Regular-30"/>
       <use xlink:href="#NotoSansCJKjp-Regular-2e" transform="translate(55.499985 0)"/>
       <use xlink:href="#NotoSansCJKjp-Regular-35" transform="translate(83.299973 0)"/>
      </g>
     </g>
    </g>
    <g id="xtick_7">
     <g id="line2d_7">
      <g>
       <use xlink:href="#mc5ff97354d" x="285.089815" y="196.99" style="stroke: #000000; stroke-width: 0.8"/>
      </g>
     </g>
     <g id="text_7">
      <!-- 0.6 -->
      <g transform="translate(277.455987 212.745312) scale(0.11 -0.11)">
       <defs>
        <path id="NotoSansCJKjp-Regular-36" d="M 1926 -83 
C 2656 -83 3277 531 3277 1440 
C 3277 2426 2765 2912 1971 2912 
C 1606 2912 1197 2701 909 2349 
C 934 3802 1466 4294 2118 4294 
C 2400 4294 2682 4154 2861 3936 
L 3194 4294 
C 2931 4576 2579 4774 2093 4774 
C 1184 4774 358 4077 358 2240 
C 358 691 1030 -83 1926 -83 
z
M 922 1882 
C 1229 2317 1587 2477 1875 2477 
C 2445 2477 2720 2074 2720 1440 
C 2720 800 2374 378 1926 378 
C 1338 378 986 909 922 1882 
z
" transform="scale(0.015625)"/>
       </defs>
       <use xlink:href="#NotoSansCJKjp-Regular-30"/>
       <use xlink:href="#NotoSansCJKjp-Regular-2e" transform="translate(55.499985 0)"/>
       <use xlink:href="#NotoSansCJKjp-Regular-36" transform="translate(83.299973 0)"/>
      </g>
     </g>
    </g>
    <g id="xtick_8">
     <g id="line2d_8">
      <g>
       <use xlink:href="#mc5ff97354d" x="321.529996" y="196.99" style="stroke: #000000; stroke-width: 0.8"/>
      </g>
     </g>
     <g id="text_8">
      <!-- 0.7 -->
      <g transform="translate(313.896168 212.745312) scale(0.11 -0.11)">
       <defs>
        <path id="NotoSansCJKjp-Regular-37" d="M 1267 0 
L 1875 0 
C 1952 1837 2150 2931 3251 4339 
L 3251 4691 
L 314 4691 
L 314 4192 
L 2592 4192 
C 1670 2912 1350 1779 1267 0 
z
" transform="scale(0.015625)"/>
       </defs>
       <use xlink:href="#NotoSansCJKjp-Regular-30"/>
       <use xlink:href="#NotoSansCJKjp-Regular-2e" transform="translate(55.499985 0)"/>
       <use xlink:href="#NotoSansCJKjp-Regular-37" transform="translate(83.299973 0)"/>
      </g>
     </g>
    </g>
    <g id="xtick_9">
     <g id="line2d_9">
      <g>
       <use xlink:href="#mc5ff97354d" x="357.970178" y="196.99" style="stroke: #000000; stroke-width: 0.8"/>
      </g>
     </g>
     <g id="text_9">
      <!-- 0.8 -->
      <g transform="translate(350.336349 212.745312) scale(0.11 -0.11)">
       <defs>
        <path id="NotoSansCJKjp-Regular-38" d="M 1792 -83 
C 2669 -83 3258 448 3258 1126 
C 3258 1773 2880 2125 2470 2362 
L 2470 2394 
C 2746 2611 3091 3034 3091 3526 
C 3091 4250 2605 4762 1805 4762 
C 1075 4762 518 4282 518 3571 
C 518 3078 813 2726 1152 2490 
L 1152 2464 
C 723 2234 294 1792 294 1165 
C 294 442 922 -83 1792 -83 
z
M 2112 2547 
C 1555 2765 1050 3014 1050 3571 
C 1050 4026 1363 4326 1798 4326 
C 2298 4326 2592 3962 2592 3494 
C 2592 3149 2426 2829 2112 2547 
z
M 1798 352 
C 1235 352 813 717 813 1216 
C 813 1664 1082 2035 1459 2278 
C 2125 2010 2701 1779 2701 1146 
C 2701 678 2342 352 1798 352 
z
" transform="scale(0.015625)"/>
       </defs>
       <use xlink:href="#NotoSansCJKjp-Regular-30"/>
       <use xlink:href="#NotoSansCJKjp-Regular-2e" transform="translate(55.499985 0)"/>
       <use xlink:href="#NotoSansCJKjp-Regular-38" transform="translate(83.299973 0)"/>
      </g>
     </g>
    </g>
    <g id="text_10">
     <!-- SVD 截断率 -->
     <g transform="translate(181.711641 228.81625) scale(0.12 -0.12)">
      <defs>
       <path id="NotoSansCJKjp-Regular-53" d="M 1946 -83 
C 2925 -83 3539 506 3539 1248 
C 3539 1946 3117 2266 2573 2502 
L 1907 2790 
C 1542 2944 1126 3117 1126 3578 
C 1126 3994 1472 4256 2003 4256 
C 2438 4256 2784 4090 3072 3821 
L 3379 4198 
C 3053 4538 2560 4774 2003 4774 
C 1152 4774 525 4256 525 3533 
C 525 2848 1043 2515 1478 2330 
L 2150 2035 
C 2598 1837 2938 1683 2938 1197 
C 2938 742 2573 435 1952 435 
C 1466 435 992 666 659 1018 
L 307 608 
C 710 186 1280 -83 1946 -83 
z
" transform="scale(0.015625)"/>
       <path id="NotoSansCJKjp-Regular-56" d="M 1504 0 
L 2189 0 
L 3680 4691 
L 3078 4691 
L 2323 2150 
C 2163 1600 2048 1152 1869 602 
L 1843 602 
C 1670 1152 1549 1600 1389 2150 
L 627 4691 
L 6 4691 
L 1504 0 
z
" transform="scale(0.015625)"/>
       <path id="NotoSansCJKjp-Regular-44" d="M 646 0 
L 1843 0 
C 3258 0 4026 877 4026 2362 
C 4026 3859 3258 4691 1818 4691 
L 646 4691 
L 646 0 
z
M 1235 486 
L 1235 4211 
L 1766 4211 
C 2874 4211 3418 3552 3418 2362 
C 3418 1178 2874 486 1766 486 
L 1235 486 
z
" transform="scale(0.015625)"/>
       <path id="NotoSansCJKjp-Regular-20" transform="scale(0.015625)"/>
       <path id="NotoSansCJKjp-Regular-622a" d="M 4627 5005 
C 4992 4730 5408 4326 5587 4045 
L 5946 4326 
C 5747 4602 5331 4992 4966 5254 
L 4627 5005 
z
M 5331 3027 
C 5146 2438 4890 1875 4563 1382 
C 4429 1914 4326 2566 4262 3315 
L 6074 3315 
L 6074 3750 
L 4230 3750 
C 4198 4256 4186 4800 4192 5370 
L 3712 5370 
C 3718 4813 3731 4269 3763 3750 
L 2259 3750 
L 2259 4378 
L 3430 4378 
L 3430 4781 
L 2259 4781 
L 2259 5376 
L 1805 5376 
L 1805 4781 
L 608 4781 
L 608 4378 
L 1805 4378 
L 1805 3750 
L 333 3750 
L 333 3315 
L 3795 3315 
C 3872 2381 4006 1549 4211 902 
C 3968 608 3699 339 3405 122 
L 3405 288 
L 2426 288 
L 2426 742 
L 3309 742 
L 3309 1062 
L 2426 1062 
L 2426 1498 
L 3309 1498 
L 3309 1818 
L 2426 1818 
L 2426 2234 
L 3411 2234 
L 3411 2611 
L 2515 2611 
L 2784 3117 
L 2349 3219 
C 2298 3053 2202 2816 2106 2611 
L 1363 2611 
C 1459 2790 1549 2970 1626 3155 
L 1210 3270 
C 992 2714 621 2157 211 1792 
C 314 1722 486 1581 563 1510 
C 646 1594 736 1690 819 1798 
L 819 -442 
L 1242 -442 
L 1242 -109 
L 3072 -109 
L 3008 -147 
C 3130 -243 3277 -403 3354 -518 
C 3744 -269 4096 38 4403 390 
C 4666 -179 5011 -512 5453 -512 
C 5920 -512 6093 -211 6176 813 
C 6048 851 5882 954 5773 1056 
C 5741 269 5664 -38 5485 -38 
C 5197 -38 4941 269 4742 806 
C 5184 1414 5530 2125 5773 2893 
L 5331 3027 
z
M 2022 1498 
L 2022 1062 
L 1242 1062 
L 1242 1498 
L 2022 1498 
z
M 2022 1818 
L 1242 1818 
L 1242 2234 
L 2022 2234 
L 2022 1818 
z
M 2022 742 
L 2022 288 
L 1242 288 
L 1242 742 
L 2022 742 
z
" transform="scale(0.015625)"/>
       <path id="NotoSansCJKjp-Regular-65ad" d="M 2963 4947 
C 2874 4614 2701 4115 2560 3802 
L 2854 3699 
C 3002 3987 3194 4448 3347 4832 
L 2963 4947 
z
M 1197 4832 
C 1338 4480 1446 4019 1472 3712 
L 1811 3827 
C 1786 4128 1658 4589 1510 4934 
L 1197 4832 
z
M 2035 5331 
L 2035 3450 
L 1114 3450 
L 1114 3034 
L 1978 3034 
C 1747 2464 1363 1856 998 1523 
C 1069 1421 1165 1248 1210 1126 
C 1510 1414 1805 1888 2035 2381 
L 2035 781 
L 2445 781 
L 2445 2355 
C 2669 2112 2938 1805 3046 1651 
L 3322 1984 
C 3187 2118 2624 2630 2445 2790 
L 2445 3034 
L 3347 3034 
L 3347 3450 
L 2445 3450 
L 2445 5331 
L 2035 5331 
z
M 5709 5274 
C 5306 5069 4602 4864 3955 4723 
L 3616 4826 
L 3616 2586 
C 3616 1952 3578 1216 3283 550 
L 3283 627 
L 947 627 
L 947 5146 
L 518 5146 
L 518 -282 
L 947 -282 
L 947 205 
L 3104 205 
C 3014 51 2899 -96 2771 -237 
C 2886 -294 3053 -461 3117 -570 
C 3955 326 4070 1626 4070 2579 
L 4070 2778 
L 5024 2778 
L 5024 -512 
L 5478 -512 
L 5478 2778 
L 6202 2778 
L 6202 3226 
L 4070 3226 
L 4070 4339 
C 4774 4480 5555 4678 6099 4922 
L 5709 5274 
z
" transform="scale(0.015625)"/>
       <path id="NotoSansCJKjp-Regular-7387" d="M 5376 4038 
C 5139 3782 4704 3437 4384 3226 
L 4736 3014 
C 5056 3226 5472 3520 5798 3821 
L 5376 4038 
z
M 320 1997 
L 557 1613 
C 986 1798 1517 2048 2022 2291 
L 1933 2656 
C 1338 2406 730 2150 320 1997 
z
M 544 3680 
C 902 3482 1344 3174 1555 2957 
L 1888 3258 
C 1670 3469 1222 3757 864 3949 
L 544 3680 
z
M 4262 2458 
C 4768 2202 5408 1811 5715 1542 
L 6067 1850 
C 5734 2112 5094 2490 4595 2733 
L 4262 2458 
z
M 3526 2707 
C 3654 2566 3782 2400 3904 2227 
L 2810 2176 
C 3264 2618 3763 3168 4147 3642 
L 3770 3827 
C 3590 3571 3347 3270 3091 2976 
C 2957 3098 2784 3226 2598 3347 
C 2810 3578 3046 3878 3251 4154 
L 3110 4211 
L 5882 4211 
L 5882 4659 
L 3424 4659 
L 3424 5376 
L 2938 5376 
L 2938 4659 
L 538 4659 
L 538 4211 
L 2771 4211 
C 2643 4000 2470 3750 2310 3546 
L 2131 3654 
L 1894 3373 
C 2202 3174 2579 2906 2822 2682 
C 2650 2490 2470 2310 2304 2150 
L 1811 2131 
L 1882 1715 
L 4128 1882 
C 4211 1747 4275 1626 4320 1517 
L 4691 1709 
C 4550 2035 4192 2515 3872 2874 
L 3526 2707 
z
M 346 1222 
L 346 774 
L 2938 774 
L 2938 -531 
L 3424 -531 
L 3424 774 
L 6061 774 
L 6061 1222 
L 3424 1222 
L 3424 1722 
L 2938 1722 
L 2938 1222 
L 346 1222 
z
" transform="scale(0.015625)"/>
      </defs>
      <use xlink:href="#NotoSansCJKjp-Regular-53"/>
      <use xlink:href="#NotoSansCJKjp-Regular-56" transform="translate(59.599991 0)"/>
      <use xlink:href="#NotoSansCJKjp-Regular-44" transform="translate(117.099976 0)"/>
      <use xlink:href="#NotoSansCJKjp-Regular-20" transform="translate(185.899963 0)"/>
      <use xlink:href="#NotoSansCJKjp-Regular-622a" transform="translate(208.299957 0)"/>
      <use xlink:href="#NotoSansCJKjp-Regular-65ad" transform="translate(308.299942 0)"/>
      <use xlink:href="#NotoSansCJKjp-Regular-7387" transform="translate(408.299927 0)"/>
     </g>
    </g>
   </g>
   <g id="matplotlib.axis_2">
    <g id="ytick_1">
     <g id="line2d_10">
      <path d="M 51.872656 188.363182 
L 372.54625 188.363182 
" clip-path="url(#pe411fff0f6)" style="fill: none; stroke: #dddddd; stroke-width: 0.8; stroke-linecap: square"/>
     </g>
     <g id="line2d_11">
      <defs>
       <path id="md2aa40ef1b" d="M 0 0 
L -3.5 0 
" style="stroke: #000000; stroke-width: 0.8"/>
      </defs>
      <g>
       <use xlink:href="#md2aa40ef1b" x="51.872656" y="188.363182" style="stroke: #000000; stroke-width: 0.8"/>
      </g>
     </g>
     <g id="text_11">
      <!-- 1.00 -->
      <g style="fill: #1f77b4" transform="translate(23.5 192.740838) scale(0.11 -0.11)">
       <use xlink:href="#NotoSansCJKjp-Regular-31"/>
       <use xlink:href="#NotoSansCJKjp-Regular-2e" transform="translate(55.499985 0)"/>
       <use xlink:href="#NotoSansCJKjp-Regular-30" transform="translate(83.299973 0)"/>
       <use xlink:href="#NotoSansCJKjp-Regular-30" transform="translate(138.799957 0)"/>
      </g>
     </g>
    </g>
    <g id="ytick_2">
     <g id="line2d_12">
      <path d="M 51.872656 161.871502 
L 372.54625 161.871502 
" clip-path="url(#pe411fff0f6)" style="fill: none; stroke: #dddddd; stroke-width: 0.8; stroke-linecap: square"/>
     </g>
     <g id="line2d_13">
      <g>
       <use xlink:href="#md2aa40ef1b" x="51.872656" y="161.871502" style="stroke: #000000; stroke-width: 0.8"/>
      </g>
     </g>
     <g id="text_12">
      <!-- 1.05 -->
      <g style="fill: #1f77b4" transform="translate(23.5 166.249158) scale(0.11 -0.11)">
       <use xlink:href="#NotoSansCJKjp-Regular-31"/>
       <use xlink:href="#NotoSansCJKjp-Regular-2e" transform="translate(55.499985 0)"/>
       <use xlink:href="#NotoSansCJKjp-Regular-30" transform="translate(83.299973 0)"/>
       <use xlink:href="#NotoSansCJKjp-Regular-35" transform="translate(138.799957 0)"/>
      </g>
     </g>
    </g>
    <g id="ytick_3">
     <g id="line2d_14">
      <path d="M 51.872656 135.379821 
L 372.54625 135.379821 
" clip-path="url(#pe411fff0f6)" style="fill: none; stroke: #dddddd; stroke-width: 0.8; stroke-linecap: square"/>
     </g>
     <g id="line2d_15">
      <g>
       <use xlink:href="#md2aa40ef1b" x="51.872656" y="135.379821" style="stroke: #000000; stroke-width: 0.8"/>
      </g>
     </g>
     <g id="text_13">
      <!-- 1.10 -->
      <g style="fill: #1f77b4" transform="translate(23.5 139.757478) scale(0.11 -0.11)">
       <use xlink:href="#NotoSansCJKjp-Regular-31"/>
       <use xlink:href="#NotoSansCJKjp-Regular-2e" transform="translate(55.499985 0)"/>
       <use xlink:href="#NotoSansCJKjp-Regular-31" transform="translate(83.299973 0)"/>
       <use xlink:href="#NotoSansCJKjp-Regular-30" transform="translate(138.799957 0)"/>
      </g>
     </g>
    </g>
    <g id="ytick_4">
     <g id="line2d_16">
      <path d="M 51.872656 108.888141 
L 372.54625 108.888141 
" clip-path="url(#pe411fff0f6)" style="fill: none; stroke: #dddddd; stroke-width: 0.8; stroke-linecap: square"/>
     </g>
     <g id="line2d_17">
      <g>
       <use xlink:href="#md2aa40ef1b" x="51.872656" y="108.888141" style="stroke: #000000; stroke-width: 0.8"/>
      </g>
     </g>
     <g id="text_14">
      <!-- 1.15 -->
      <g style="fill: #1f77b4" transform="translate(23.5 113.265797) scale(0.11 -0.11)">
       <use xlink:href="#NotoSansCJKjp-Regular-31"/>
       <use xlink:href="#NotoSansCJKjp-Regular-2e" transform="translate(55.499985 0)"/>
       <use xlink:href="#NotoSansCJKjp-Regular-31" transform="translate(83.299973 0)"/>
       <use xlink:href="#NotoSansCJKjp-Regular-35" transform="translate(138.799957 0)"/>
      </g>
     </g>
    </g>
    <g id="ytick_5">
     <g id="line2d_18">
      <path d="M 51.872656 82.396461 
L 372.54625 82.396461 
" clip-path="url(#pe411fff0f6)" style="fill: none; stroke: #dddddd; stroke-width: 0.8; stroke-linecap: square"/>
     </g>
     <g id="line2d_19">
      <g>
       <use xlink:href="#md2aa40ef1b" x="51.872656" y="82.396461" style="stroke: #000000; stroke-width: 0.8"/>
      </g>
     </g>
     <g id="text_15">
      <!-- 1.20 -->
      <g style="fill: #1f77b4" transform="translate(23.5 86.774117) scale(0.11 -0.11)">
       <use xlink:href="#NotoSansCJKjp-Regular-31"/>
       <use xlink:href="#NotoSansCJKjp-Regular-2e" transform="translate(55.499985 0)"/>
       <use xlink:href="#NotoSansCJKjp-Regular-32" transform="translate(83.299973 0)"/>
       <use xlink:href="#NotoSansCJKjp-Regular-30" transform="translate(138.799957 0)"/>
      </g>
     </g>
    </g>
    <g id="ytick_6">
     <g id="line2d_20">
      <path d="M 51.872656 55.904781 
L 372.54625 55.904781 
" clip-path="url(#pe411fff0f6)" style="fill: none; stroke: #dddddd; stroke-width: 0.8; stroke-linecap: square"/>
     </g>
     <g id="line2d_21">
      <g>
       <use xlink:href="#md2aa40ef1b" x="51.872656" y="55.904781" style="stroke: #000000; stroke-width: 0.8"/>
      </g>
     </g>
     <g id="text_16">
      <!-- 1.25 -->
      <g style="fill: #1f77b4" transform="translate(23.5 60.282437) scale(0.11 -0.11)">
       <use xlink:href="#NotoSansCJKjp-Regular-31"/>
       <use xlink:href="#NotoSansCJKjp-Regular-2e" transform="translate(55.499985 0)"/>
       <use xlink:href="#NotoSansCJKjp-Regular-32" transform="translate(83.299973 0)"/>
       <use xlink:href="#NotoSansCJKjp-Regular-35" transform="translate(138.799957 0)"/>
      </g>
     </g>
    </g>
    <g id="ytick_7">
     <g id="line2d_22">
      <path d="M 51.872656 29.4131 
L 372.54625 29.4131 
" clip-path="url(#pe411fff0f6)" style="fill: none; stroke: #dddddd; stroke-width: 0.8; stroke-linecap: square"/>
     </g>
     <g id="line2d_23">
      <g>
       <use xlink:href="#md2aa40ef1b" x="51.872656" y="29.4131" style="stroke: #000000; stroke-width: 0.8"/>
      </g>
     </g>
     <g id="text_17">
      <!-- 1.30 -->
      <g style="fill: #1f77b4" transform="translate(23.5 33.790757) scale(0.11 -0.11)">
       <use xlink:href="#NotoSansCJKjp-Regular-31"/>
       <use xlink:href="#NotoSansCJKjp-Regular-2e" transform="translate(55.499985 0)"/>
       <use xlink:href="#NotoSansCJKjp-Regular-33" transform="translate(83.299973 0)"/>
       <use xlink:href="#NotoSansCJKjp-Regular-30" transform="translate(138.799957 0)"/>
      </g>
     </g>
    </g>
    <g id="text_18">
     <!-- 相对完整秩的加速比 -->
     <g style="fill: #1f77b4" transform="translate(16.75125 156.095) rotate(-90) scale(0.12 -0.12)">
      <defs>
       <path id="NotoSansCJKjp-Regular-76f8" d="M 3494 3034 
L 5440 3034 
L 5440 1920 
L 3494 1920 
L 3494 3034 
z
M 3494 3469 
L 3494 4544 
L 5440 4544 
L 5440 3469 
L 3494 3469 
z
M 3494 1478 
L 5440 1478 
L 5440 365 
L 3494 365 
L 3494 1478 
z
M 3027 4998 
L 3027 -467 
L 3494 -467 
L 3494 -77 
L 5440 -77 
L 5440 -448 
L 5926 -448 
L 5926 4998 
L 3027 4998 
z
M 1370 5376 
L 1370 4006 
L 333 4006 
L 333 3546 
L 1312 3546 
C 1088 2662 634 1651 186 1120 
C 262 1005 384 813 435 685 
C 781 1126 1120 1837 1370 2573 
L 1370 -506 
L 1837 -506 
L 1837 2419 
C 2080 2106 2368 1709 2490 1498 
L 2784 1888 
C 2643 2061 2061 2746 1837 2970 
L 1837 3546 
L 2752 3546 
L 2752 4006 
L 1837 4006 
L 1837 5376 
L 1370 5376 
z
" transform="scale(0.015625)"/>
       <path id="NotoSansCJKjp-Regular-5bf9" d="M 3213 2522 
C 3514 2067 3802 1459 3904 1075 
L 4326 1286 
C 4224 1670 3917 2259 3603 2701 
L 3213 2522 
z
M 582 2899 
C 973 2547 1389 2131 1760 1709 
C 1376 890 870 269 288 -109 
C 403 -205 550 -384 627 -499 
C 1216 -77 1715 512 2106 1299 
C 2394 941 2630 602 2784 314 
L 3168 666 
C 2982 998 2682 1395 2330 1798 
C 2624 2534 2835 3411 2944 4448 
L 2630 4538 
L 2547 4518 
L 448 4518 
L 448 4064 
L 2419 4064 
C 2323 3373 2170 2752 1965 2202 
C 1626 2554 1267 2899 922 3200 
L 582 2899 
z
M 4896 5376 
L 4896 3834 
L 3085 3834 
L 3085 3373 
L 4896 3373 
L 4896 141 
C 4896 26 4851 -6 4742 -13 
C 4634 -13 4275 -19 3872 0 
C 3936 -147 4006 -371 4032 -506 
C 4576 -506 4902 -493 5094 -410 
C 5293 -326 5370 -179 5370 141 
L 5370 3373 
L 6138 3373 
L 6138 3834 
L 5370 3834 
L 5370 5376 
L 4896 5376 
z
" transform="scale(0.015625)"/>
       <path id="NotoSansCJKjp-Regular-5b8c" d="M 1459 3520 
L 1459 3078 
L 4941 3078 
L 4941 3520 
L 1459 3520 
z
M 358 2342 
L 358 1888 
L 2022 1888 
C 1907 915 1594 230 218 -115 
C 326 -211 454 -403 506 -525 
C 2010 -109 2394 717 2541 1888 
L 3661 1888 
L 3661 256 
C 3661 -256 3814 -397 4410 -397 
C 4531 -397 5274 -397 5395 -397 
C 5914 -397 6048 -179 6106 704 
C 5978 736 5773 813 5670 896 
C 5645 154 5606 45 5357 45 
C 5197 45 4582 45 4454 45 
C 4192 45 4147 77 4147 262 
L 4147 1888 
L 6035 1888 
L 6035 2342 
L 358 2342 
z
M 512 4691 
L 512 3334 
L 998 3334 
L 998 4230 
L 5382 4230 
L 5382 3334 
L 5894 3334 
L 5894 4691 
L 3437 4691 
L 3437 5376 
L 2931 5376 
L 2931 4691 
L 512 4691 
z
" transform="scale(0.015625)"/>
       <path id="NotoSansCJKjp-Regular-6574" d="M 1357 1139 
L 1357 32 
L 301 32 
L 301 -371 
L 6118 -371 
L 6118 32 
L 3430 32 
L 3430 563 
L 5274 563 
L 5274 934 
L 3430 934 
L 3430 1427 
L 5696 1427 
L 5696 1824 
L 730 1824 
L 730 1427 
L 2957 1427 
L 2957 32 
L 1818 32 
L 1818 1139 
L 1357 1139 
z
M 4109 5376 
C 3930 4742 3597 4154 3162 3770 
L 3162 4282 
L 2054 4282 
L 2054 4608 
L 3315 4608 
L 3315 4960 
L 2054 4960 
L 2054 5376 
L 1626 5376 
L 1626 4960 
L 365 4960 
L 365 4608 
L 1626 4608 
L 1626 4282 
L 550 4282 
L 550 3110 
L 1440 3110 
C 1126 2790 646 2470 256 2304 
C 346 2234 474 2093 538 1997 
C 883 2176 1306 2496 1626 2822 
L 1626 1997 
L 2054 1997 
L 2054 2784 
C 2368 2611 2790 2362 2970 2227 
L 3206 2547 
C 3027 2650 2349 2989 2086 3110 
L 3162 3110 
L 3162 3725 
C 3264 3642 3411 3494 3462 3411 
C 3603 3546 3744 3699 3866 3878 
C 4000 3590 4186 3296 4416 3021 
C 4064 2714 3629 2490 3104 2330 
C 3200 2253 3341 2074 3392 1978 
C 3904 2163 4339 2400 4704 2714 
C 5030 2406 5434 2138 5926 1958 
C 5990 2067 6112 2246 6202 2336 
C 5715 2483 5318 2720 4998 3002 
C 5299 3347 5530 3757 5677 4269 
L 6093 4269 
L 6093 4659 
L 4314 4659 
C 4403 4858 4480 5069 4544 5280 
L 4109 5376 
z
M 947 3962 
L 1626 3962 
L 1626 3430 
L 947 3430 
L 947 3962 
z
M 2054 3962 
L 2752 3962 
L 2752 3430 
L 2054 3430 
L 2054 3962 
z
M 4122 4269 
L 5216 4269 
C 5101 3891 4928 3571 4698 3302 
C 4435 3603 4243 3930 4109 4250 
L 4122 4269 
z
" transform="scale(0.015625)"/>
       <path id="NotoSansCJKjp-Regular-79e9" d="M 4070 5338 
L 4070 4192 
L 3379 4192 
C 3450 4467 3507 4755 3552 5050 
L 3104 5126 
C 2995 4390 2803 3648 2515 3123 
L 2432 2989 
C 2547 2938 2752 2816 2835 2746 
C 2995 3021 3136 3360 3251 3738 
L 4070 3738 
L 4070 3219 
C 4070 2982 4064 2733 4045 2477 
L 2554 2477 
L 2554 2022 
L 3981 2022 
C 3821 1222 3379 422 2182 -147 
C 2298 -237 2445 -416 2509 -512 
C 3533 19 4045 710 4294 1434 
C 4614 550 5114 -128 5875 -493 
C 5946 -371 6093 -192 6195 -96 
C 5357 256 4826 1037 4544 2022 
L 6099 2022 
L 6099 2477 
L 4512 2477 
C 4531 2733 4538 2982 4538 3219 
L 4538 3738 
L 5856 3738 
L 5856 4192 
L 4538 4192 
L 4538 5338 
L 4070 5338 
z
M 2381 5286 
C 1901 5075 1056 4883 339 4768 
C 390 4666 454 4506 474 4397 
C 749 4435 1043 4480 1331 4538 
L 1331 3571 
L 275 3571 
L 275 3123 
L 1274 3123 
C 1030 2387 589 1555 192 1101 
C 275 986 390 794 442 659 
C 755 1056 1075 1677 1331 2317 
L 1331 -499 
L 1805 -499 
L 1805 2406 
C 1990 2112 2202 1747 2291 1555 
L 2586 1933 
C 2477 2099 1971 2752 1805 2944 
L 1805 3123 
L 2515 3123 
L 2515 3571 
L 1805 3571 
L 1805 4640 
C 2125 4710 2426 4800 2675 4902 
L 2381 5286 
z
" transform="scale(0.015625)"/>
       <path id="NotoSansCJKjp-Regular-7684" d="M 3533 2707 
C 3885 2240 4320 1600 4512 1210 
L 4922 1466 
C 4710 1843 4269 2464 3904 2918 
L 3533 2707 
z
M 1536 5389 
C 1485 5082 1376 4659 1274 4346 
L 557 4346 
L 557 -346 
L 998 -346 
L 998 160 
L 2784 160 
L 2784 4346 
L 1715 4346 
C 1824 4621 1946 4979 2054 5299 
L 1536 5389 
z
M 998 3917 
L 2342 3917 
L 2342 2566 
L 998 2566 
L 998 3917 
z
M 998 595 
L 998 2144 
L 2342 2144 
L 2342 595 
L 998 595 
z
M 3827 5402 
C 3622 4518 3277 3635 2835 3066 
C 2950 3002 3149 2867 3238 2790 
C 3456 3098 3661 3488 3840 3923 
L 5478 3923 
C 5402 1357 5299 371 5094 154 
C 5018 64 4947 45 4819 45 
C 4672 45 4288 51 3866 83 
C 3955 -38 4013 -243 4026 -378 
C 4384 -397 4762 -410 4979 -390 
C 5210 -365 5350 -314 5498 -122 
C 5754 192 5843 1184 5939 4122 
C 5946 4186 5946 4365 5946 4365 
L 4013 4365 
C 4115 4666 4211 4986 4288 5299 
L 3827 5402 
z
" transform="scale(0.015625)"/>
       <path id="NotoSansCJKjp-Regular-52a0" d="M 3661 4582 
L 3661 -416 
L 4122 -416 
L 4122 58 
L 5363 58 
L 5363 -365 
L 5843 -365 
L 5843 4582 
L 3661 4582 
z
M 4122 518 
L 4122 4115 
L 5363 4115 
L 5363 518 
L 4122 518 
z
M 1248 5293 
L 1242 4160 
L 339 4160 
L 339 3693 
L 1229 3693 
C 1184 2080 986 659 179 -186 
C 301 -262 474 -410 550 -518 
C 1414 422 1638 1958 1696 3693 
L 2669 3693 
C 2618 1229 2560 352 2426 166 
C 2368 83 2304 58 2208 64 
C 2093 64 1818 64 1517 90 
C 1600 -45 1645 -250 1658 -390 
C 1946 -410 2240 -416 2419 -390 
C 2605 -365 2726 -307 2842 -141 
C 3040 134 3085 1069 3136 3917 
C 3136 3987 3136 4160 3136 4160 
L 1709 4160 
L 1722 5293 
L 1248 5293 
z
" transform="scale(0.015625)"/>
       <path id="NotoSansCJKjp-Regular-901f" d="M 384 4934 
C 794 4646 1274 4218 1478 3904 
L 1862 4224 
C 1632 4531 1152 4947 730 5222 
L 384 4934 
z
M 1677 2848 
L 314 2848 
L 314 2400 
L 1210 2400 
L 1210 768 
C 890 499 518 230 230 32 
L 480 -461 
C 826 -173 1152 102 1459 378 
C 1869 -128 2445 -358 3283 -390 
C 3994 -416 5318 -403 6016 -371 
C 6035 -224 6118 6 6176 115 
C 5414 64 3981 45 3283 77 
C 2541 102 1978 326 1677 794 
L 1677 2848 
z
M 2752 3379 
L 3757 3379 
L 3757 2560 
L 2752 2560 
L 2752 3379 
z
M 4224 3379 
L 5286 3379 
L 5286 2560 
L 4224 2560 
L 4224 3379 
z
M 3757 5370 
L 3757 4710 
L 2035 4710 
L 2035 4294 
L 3757 4294 
L 3757 3763 
L 2304 3763 
L 2304 2176 
L 3501 2176 
C 3130 1638 2502 1120 1920 870 
C 2022 781 2163 621 2227 506 
C 2778 787 3360 1306 3757 1875 
L 3757 314 
L 4224 314 
L 4224 1850 
C 4640 1318 5235 800 5754 525 
C 5824 640 5971 806 6080 896 
C 5510 1146 4845 1658 4442 2176 
L 5754 2176 
L 5754 3763 
L 4224 3763 
L 4224 4294 
L 6048 4294 
L 6048 4710 
L 4224 4710 
L 4224 5370 
L 3757 5370 
z
" transform="scale(0.015625)"/>
       <path id="NotoSansCJKjp-Regular-6bd4" d="M 250 128 
L 397 -371 
C 1197 -179 2278 77 3290 326 
L 3245 787 
C 2694 659 2125 525 1600 410 
L 1600 2925 
L 3046 2925 
L 3046 3398 
L 1600 3398 
L 1600 5344 
L 1107 5344 
L 1107 301 
L 250 128 
z
M 3520 5344 
L 3520 512 
C 3520 -186 3693 -371 4320 -371 
C 4448 -371 5261 -371 5395 -371 
C 6003 -371 6138 -13 6202 1037 
C 6061 1069 5869 1152 5747 1248 
C 5709 320 5670 83 5370 83 
C 5190 83 4506 83 4371 83 
C 4064 83 4013 147 4013 499 
L 4013 2586 
C 4691 2874 5414 3219 5952 3571 
L 5594 3974 
C 5216 3674 4608 3328 4013 3046 
L 4013 5344 
L 3520 5344 
z
" transform="scale(0.015625)"/>
      </defs>
      <use xlink:href="#NotoSansCJKjp-Regular-76f8"/>
      <use xlink:href="#NotoSansCJKjp-Regular-5bf9" transform="translate(99.999985 0)"/>
      <use xlink:href="#NotoSansCJKjp-Regular-5b8c" transform="translate(199.999969 0)"/>
      <use xlink:href="#NotoSansCJKjp-Regular-6574" transform="translate(299.999954 0)"/>
      <use xlink:href="#NotoSansCJKjp-Regular-79e9" transform="translate(399.999939 0)"/>
      <use xlink:href="#NotoSansCJKjp-Regular-7684" transform="translate(499.999924 0)"/>
      <use xlink:href="#NotoSansCJKjp-Regular-52a0" transform="translate(599.999908 0)"/>
      <use xlink:href="#NotoSansCJKjp-Regular-901f" transform="translate(699.999893 0)"/>
      <use xlink:href="#NotoSansCJKjp-Regular-6bd4" transform="translate(799.999878 0)"/>
     </g>
    </g>
   </g>
   <g id="line2d_24">
    <path d="M 66.448729 188.363182 
L 102.88891 165.570461 
L 139.329091 145.429334 
L 175.769272 133.349978 
L 212.209453 102.818188 
L 248.649634 96.319614 
L 285.089815 93.121508 
L 321.529996 91.277826 
L 357.970178 15.826818 
" clip-path="url(#pe411fff0f6)" style="fill: none; stroke: #1f77b4; stroke-width: 2.2; stroke-linecap: square"/>
    <defs>
     <path id="me830d9400f" d="M 0 3 
C 0.795609 3 1.55874 2.683901 2.12132 2.12132 
C 2.683901 1.55874 3 0.795609 3 0 
C 3 -0.795609 2.683901 -1.55874 2.12132 -2.12132 
C 1.55874 -2.683901 0.795609 -3 0 -3 
C -0.795609 -3 -1.55874 -2.683901 -2.12132 -2.12132 
C -2.683901 -1.55874 -3 -0.795609 -3 0 
C -3 0.795609 -2.683901 1.55874 -2.12132 2.12132 
C -1.55874 2.683901 -0.795609 3 0 3 
z
" style="stroke: #1f77b4"/>
    </defs>
    <g clip-path="url(#pe411fff0f6)">
     <use xlink:href="#me830d9400f" x="66.448729" y="188.363182" style="fill: #1f77b4; stroke: #1f77b4"/>
     <use xlink:href="#me830d9400f" x="102.88891" y="165.570461" style="fill: #1f77b4; stroke: #1f77b4"/>
     <use xlink:href="#me830d9400f" x="139.329091" y="145.429334" style="fill: #1f77b4; stroke: #1f77b4"/>
     <use xlink:href="#me830d9400f" x="175.769272" y="133.349978" style="fill: #1f77b4; stroke: #1f77b4"/>
     <use xlink:href="#me830d9400f" x="212.209453" y="102.818188" style="fill: #1f77b4; stroke: #1f77b4"/>
     <use xlink:href="#me830d9400f" x="248.649634" y="96.319614" style="fill: #1f77b4; stroke: #1f77b4"/>
     <use xlink:href="#me830d9400f" x="285.089815" y="93.121508" style="fill: #1f77b4; stroke: #1f77b4"/>
     <use xlink:href="#me830d9400f" x="321.529996" y="91.277826" style="fill: #1f77b4; stroke: #1f77b4"/>
     <use xlink:href="#me830d9400f" x="357.970178" y="15.826818" style="fill: #1f77b4; stroke: #1f77b4"/>
    </g>
   </g>
   <g id="line2d_25">
    <path d="M 51.872656 188.363182 
L 372.54625 188.363182 
" clip-path="url(#pe411fff0f6)" style="fill: none; stroke-dasharray: 3.7,1.6; stroke-dashoffset: 0; stroke: #8c8c8c"/>
   </g>
   <g id="patch_3">
    <path d="M 51.872656 196.99 
L 51.872656 7.2 
" style="fill: none; stroke: #000000; stroke-width: 0.8; stroke-linejoin: miter; stroke-linecap: square"/>
   </g>
   <g id="patch_4">
    <path d="M 372.54625 196.99 
L 372.54625 7.2 
" style="fill: none; stroke: #000000; stroke-width: 0.8; stroke-linejoin: miter; stroke-linecap: square"/>
   </g>
   <g id="patch_5">
    <path d="M 51.872656 196.99 
L 372.54625 196.99 
" style="fill: none; stroke: #000000; stroke-width: 0.8; stroke-linejoin: miter; stroke-linecap: square"/>
   </g>
   <g id="patch_6">
    <path d="M 51.872656 7.2 
L 372.54625 7.2 
" style="fill: none; stroke: #000000; stroke-width: 0.8; stroke-linejoin: miter; stroke-linecap: square"/>
   </g>
   <g id="legend_1">
    <g id="line2d_26">
     <path d="M 60.872656 20.659375 
L 70.872656 20.659375 
L 80.872656 20.659375 
" style="fill: none; stroke: #1f77b4; stroke-width: 2.2; stroke-linecap: square"/>
     <g>
      <use xlink:href="#me830d9400f" x="70.872656" y="20.659375" style="fill: #1f77b4; stroke: #1f77b4"/>
     </g>
    </g>
    <g id="text_19">
     <!-- 加速比 -->
     <g transform="translate(88.872656 24.159375) scale(0.1 -0.1)">
      <use xlink:href="#NotoSansCJKjp-Regular-52a0"/>
      <use xlink:href="#NotoSansCJKjp-Regular-901f" transform="translate(99.999985 0)"/>
      <use xlink:href="#NotoSansCJKjp-Regular-6bd4" transform="translate(199.999969 0)"/>
     </g>
    </g>
    <g id="LineCollection_1">
     <path d="M 70.872656 40.909375 
L 70.872656 30.909375 
" style="fill: none; stroke: #4d4d4d; stroke-width: 1.8"/>
    </g>
    <g id="line2d_27">
     <defs>
      <path id="m23fc84664e" d="M 3 0 
L -3 -0 
" style="stroke: #4d4d4d"/>
     </defs>
     <g>
      <use xlink:href="#m23fc84664e" x="70.872656" y="40.909375" style="fill: #4d4d4d; stroke: #4d4d4d"/>
     </g>
    </g>
    <g id="line2d_28">
     <g>
      <use xlink:href="#m23fc84664e" x="70.872656" y="30.909375" style="fill: #4d4d4d; stroke: #4d4d4d"/>
     </g>
    </g>
    <g id="line2d_29">
     <path d="M 60.872656 35.909375 
L 80.872656 35.909375 
" style="fill: none; stroke: #4d4d4d; stroke-width: 1.8; stroke-linecap: square"/>
    </g>
    <g id="line2d_30">
     <defs>
      <path id="mc20ecf48d0" d="M -3 3 
L 3 3 
L 3 -3 
L -3 -3 
z
" style="stroke: #4d4d4d; stroke-linejoin: miter"/>
     </defs>
     <g>
      <use xlink:href="#mc20ecf48d0" x="70.872656" y="35.909375" style="fill: #4d4d4d; stroke: #4d4d4d; stroke-linejoin: miter"/>
     </g>
    </g>
    <g id="text_20">
     <!-- 解码吞吐 -->
     <g transform="translate(88.872656 39.409375) scale(0.1 -0.1)">
      <defs>
       <path id="NotoSansCJKjp-Regular-89e3" d="M 1677 3379 
L 1677 2662 
L 1101 2662 
L 1101 3379 
L 1677 3379 
z
M 2029 3379 
L 2605 3379 
L 2605 2662 
L 2029 2662 
L 2029 3379 
z
M 1037 3750 
C 1152 3962 1261 4186 1357 4422 
L 2067 4422 
C 1984 4192 1875 3942 1779 3750 
L 1037 3750 
z
M 1210 5382 
C 1011 4595 659 3834 205 3341 
C 307 3277 493 3130 563 3053 
L 698 3219 
L 698 2048 
C 698 1325 653 371 218 -307 
C 314 -346 493 -454 563 -525 
C 864 -58 1005 576 1062 1171 
L 2605 1171 
L 2605 19 
C 2605 -70 2573 -96 2483 -96 
C 2400 -102 2106 -102 1779 -96 
C 1837 -205 1907 -390 1926 -506 
C 2374 -506 2630 -499 2797 -429 
C 2957 -352 3014 -218 3014 13 
L 3014 3219 
C 3110 3142 3219 2995 3270 2906 
C 4070 3258 4384 3885 4518 4646 
L 5536 4646 
C 5498 3898 5446 3597 5376 3514 
C 5331 3462 5280 3456 5184 3456 
C 5101 3456 4864 3462 4608 3482 
C 4672 3373 4710 3206 4723 3085 
C 4986 3066 5254 3066 5389 3078 
C 5549 3091 5651 3136 5734 3238 
C 5875 3392 5933 3802 5978 4870 
C 5984 4934 5990 5050 5990 5050 
L 3200 5050 
L 3200 4646 
L 4070 4646 
C 3955 4045 3699 3526 3014 3238 
L 3014 3750 
L 2202 3750 
C 2355 4026 2509 4352 2611 4646 
L 2330 4826 
L 2259 4806 
L 1504 4806 
C 1555 4966 1606 5126 1651 5286 
L 1210 5382 
z
M 1677 2298 
L 1677 1555 
L 1088 1555 
L 1101 2048 
L 1101 2298 
L 1677 2298 
z
M 2029 2298 
L 2605 2298 
L 2605 1555 
L 2029 1555 
L 2029 2298 
z
M 3642 2944 
C 3533 2406 3334 1869 3053 1504 
C 3162 1459 3347 1363 3430 1306 
C 3552 1478 3661 1690 3763 1926 
L 4480 1926 
L 4480 1152 
L 3123 1152 
L 3123 723 
L 4480 723 
L 4480 -486 
L 4934 -486 
L 4934 723 
L 6163 723 
L 6163 1152 
L 4934 1152 
L 4934 1926 
L 6048 1926 
L 6048 2349 
L 4934 2349 
L 4934 3002 
L 4480 3002 
L 4480 2349 
L 3917 2349 
C 3968 2515 4019 2694 4058 2867 
L 3642 2944 
z
" transform="scale(0.015625)"/>
       <path id="NotoSansCJKjp-Regular-7801" d="M 2624 1312 
L 2624 877 
L 5069 877 
L 5069 1312 
L 2624 1312 
z
M 3142 4160 
C 3098 3526 3014 2669 2931 2157 
L 3059 2157 
L 5523 2150 
C 5402 749 5261 179 5094 13 
C 5030 -51 4966 -64 4851 -58 
C 4736 -58 4448 -58 4141 -26 
C 4218 -147 4262 -333 4275 -467 
C 4582 -486 4877 -486 5043 -474 
C 5235 -461 5357 -416 5478 -275 
C 5709 -45 5856 627 6003 2355 
C 6010 2426 6016 2566 6016 2566 
L 5222 2566 
C 5325 3360 5427 4320 5478 4986 
L 5139 5024 
L 5062 4998 
L 2835 4998 
L 2835 4557 
L 4979 4557 
C 4928 3994 4845 3213 4768 2566 
L 3437 2566 
C 3494 3040 3558 3642 3590 4128 
L 3142 4160 
z
M 326 5037 
L 326 4595 
L 1107 4595 
C 928 3616 640 2707 186 2099 
C 262 1971 371 1702 403 1581 
C 525 1741 640 1914 742 2106 
L 742 -218 
L 1158 -218 
L 1158 294 
L 2336 294 
L 2336 3066 
L 1165 3066 
C 1331 3546 1466 4064 1568 4595 
L 2522 4595 
L 2522 5037 
L 326 5037 
z
M 1158 2630 
L 1914 2630 
L 1914 723 
L 1158 723 
L 1158 2630 
z
" transform="scale(0.015625)"/>
       <path id="NotoSansCJKjp-Regular-541e" d="M 710 5018 
L 710 4576 
L 2784 4576 
C 2682 4224 2547 3885 2381 3565 
L 333 3565 
L 333 3117 
L 2118 3117 
C 1670 2445 1056 1882 218 1504 
C 307 1402 429 1203 486 1094 
C 787 1235 1069 1402 1318 1587 
L 1318 -506 
L 1811 -506 
L 1811 -218 
L 4595 -218 
L 4595 -493 
L 5107 -493 
L 5107 1645 
C 5382 1459 5683 1306 5997 1184 
C 6029 1325 6118 1542 6195 1664 
C 5376 1926 4653 2470 4211 3117 
L 6074 3117 
L 6074 3565 
L 2925 3565 
C 3078 3885 3206 4224 3315 4576 
L 5715 4576 
L 5715 5018 
L 710 5018 
z
M 1811 230 
L 1811 1574 
L 4595 1574 
L 4595 230 
L 1811 230 
z
M 1830 2016 
C 2170 2342 2451 2714 2688 3117 
L 3693 3117 
C 3917 2714 4230 2336 4608 2016 
L 1830 2016 
z
" transform="scale(0.015625)"/>
       <path id="NotoSansCJKjp-Regular-5410" d="M 2534 3354 
L 2534 2886 
L 3955 2886 
L 3955 237 
L 2093 237 
L 2093 -230 
L 6157 -230 
L 6157 237 
L 4448 237 
L 4448 2886 
L 5958 2886 
L 5958 3354 
L 4448 3354 
L 4448 5280 
L 3955 5280 
L 3955 3354 
L 2534 3354 
z
M 474 4787 
L 474 563 
L 922 563 
L 922 1062 
L 2195 1062 
L 2195 4787 
L 474 4787 
z
M 922 4326 
L 1741 4326 
L 1741 1530 
L 922 1530 
L 922 4326 
z
" transform="scale(0.015625)"/>
      </defs>
      <use xlink:href="#NotoSansCJKjp-Regular-89e3"/>
      <use xlink:href="#NotoSansCJKjp-Regular-7801" transform="translate(99.999985 0)"/>
      <use xlink:href="#NotoSansCJKjp-Regular-541e" transform="translate(199.999969 0)"/>
      <use xlink:href="#NotoSansCJKjp-Regular-5410" transform="translate(299.999954 0)"/>
     </g>
    </g>
   </g>
  </g>
  <g id="axes_2">
   <g id="matplotlib.axis_3">
    <g id="ytick_8">
     <g id="line2d_31">
      <defs>
       <path id="m8d06393181" d="M 0 0 
L 3.5 0 
" style="stroke: #000000; stroke-width: 0.8"/>
      </defs>
      <g>
       <use xlink:href="#m8d06393181" x="372.54625" y="188.411946" style="stroke: #000000; stroke-width: 0.8"/>
      </g>
     </g>
     <g id="text_21">
      <!-- 30 -->
      <g style="fill: #4d4d4d" transform="translate(379.54625 192.789602) scale(0.11 -0.11)">
       <use xlink:href="#NotoSansCJKjp-Regular-33"/>
       <use xlink:href="#NotoSansCJKjp-Regular-30" transform="translate(55.499985 0)"/>
      </g>
     </g>
    </g>
    <g id="ytick_9">
     <g id="line2d_32">
      <g>
       <use xlink:href="#m8d06393181" x="372.54625" y="156.804099" style="stroke: #000000; stroke-width: 0.8"/>
      </g>
     </g>
     <g id="text_22">
      <!-- 32 -->
      <g style="fill: #4d4d4d" transform="translate(379.54625 161.181755) scale(0.11 -0.11)">
       <use xlink:href="#NotoSansCJKjp-Regular-33"/>
       <use xlink:href="#NotoSansCJKjp-Regular-32" transform="translate(55.499985 0)"/>
      </g>
     </g>
    </g>
    <g id="ytick_10">
     <g id="line2d_33">
      <g>
       <use xlink:href="#m8d06393181" x="372.54625" y="125.196252" style="stroke: #000000; stroke-width: 0.8"/>
      </g>
     </g>
     <g id="text_23">
      <!-- 34 -->
      <g style="fill: #4d4d4d" transform="translate(379.54625 129.573908) scale(0.11 -0.11)">
       <use xlink:href="#NotoSansCJKjp-Regular-33"/>
       <use xlink:href="#NotoSansCJKjp-Regular-34" transform="translate(55.499985 0)"/>
      </g>
     </g>
    </g>
    <g id="ytick_11">
     <g id="line2d_34">
      <g>
       <use xlink:href="#m8d06393181" x="372.54625" y="93.588405" style="stroke: #000000; stroke-width: 0.8"/>
      </g>
     </g>
     <g id="text_24">
      <!-- 36 -->
      <g style="fill: #4d4d4d" transform="translate(379.54625 97.966061) scale(0.11 -0.11)">
       <use xlink:href="#NotoSansCJKjp-Regular-33"/>
       <use xlink:href="#NotoSansCJKjp-Regular-36" transform="translate(55.499985 0)"/>
      </g>
     </g>
    </g>
    <g id="ytick_12">
     <g id="line2d_35">
      <g>
       <use xlink:href="#m8d06393181" x="372.54625" y="61.980558" style="stroke: #000000; stroke-width: 0.8"/>
      </g>
     </g>
     <g id="text_25">
      <!-- 38 -->
      <g style="fill: #4d4d4d" transform="translate(379.54625 66.358214) scale(0.11 -0.11)">
       <use xlink:href="#NotoSansCJKjp-Regular-33"/>
       <use xlink:href="#NotoSansCJKjp-Regular-38" transform="translate(55.499985 0)"/>
      </g>
     </g>
    </g>
    <g id="ytick_13">
     <g id="line2d_36">
      <g>
       <use xlink:href="#m8d06393181" x="372.54625" y="30.372711" style="stroke: #000000; stroke-width: 0.8"/>
      </g>
     </g>
     <g id="text_26">
      <!-- 40 -->
      <g style="fill: #4d4d4d" transform="translate(379.54625 34.750367) scale(0.11 -0.11)">
       <use xlink:href="#NotoSansCJKjp-Regular-34"/>
       <use xlink:href="#NotoSansCJKjp-Regular-30" transform="translate(55.499985 0)"/>
      </g>
     </g>
    </g>
    <g id="text_27">
     <!-- 解码吞吐（tokens/s） -->
     <g style="fill: #4d4d4d" transform="translate(405.4275 162.257187) rotate(-90) scale(0.12 -0.12)">
      <defs>
       <path id="NotoSansCJKjp-Regular-ff08" d="M 4448 2432 
C 4448 1184 4954 166 5722 -614 
L 6106 -416 
C 5370 346 4915 1293 4915 2432 
C 4915 3571 5370 4518 6106 5280 
L 5722 5478 
C 4954 4698 4448 3680 4448 2432 
z
" transform="scale(0.015625)"/>
       <path id="NotoSansCJKjp-Regular-74" d="M 1677 -83 
C 1894 -83 2125 -19 2323 45 
L 2208 486 
C 2093 435 1939 390 1811 390 
C 1408 390 1274 634 1274 1056 
L 1274 3002 
L 2221 3002 
L 2221 3475 
L 1274 3475 
L 1274 4454 
L 787 4454 
L 723 3475 
L 173 3443 
L 173 3002 
L 691 3002 
L 691 1075 
C 691 378 941 -83 1677 -83 
z
" transform="scale(0.015625)"/>
       <path id="NotoSansCJKjp-Regular-6f" d="M 1939 -83 
C 2790 -83 3546 582 3546 1734 
C 3546 2893 2790 3565 1939 3565 
C 1088 3565 333 2893 333 1734 
C 333 582 1088 -83 1939 -83 
z
M 1939 403 
C 1338 403 934 934 934 1734 
C 934 2534 1338 3072 1939 3072 
C 2541 3072 2950 2534 2950 1734 
C 2950 934 2541 403 1939 403 
z
" transform="scale(0.015625)"/>
       <path id="NotoSansCJKjp-Regular-6b" d="M 589 0 
L 1165 0 
L 1165 915 
L 1818 1677 
L 2835 0 
L 3469 0 
L 2157 2074 
L 3315 3475 
L 2662 3475 
L 1190 1645 
L 1165 1645 
L 1165 5094 
L 589 5094 
L 589 0 
z
" transform="scale(0.015625)"/>
       <path id="NotoSansCJKjp-Regular-65" d="M 1997 -83 
C 2464 -83 2835 70 3136 269 
L 2931 659 
C 2669 486 2400 384 2061 384 
C 1402 384 947 858 909 1600 
L 3251 1600 
C 3264 1690 3277 1805 3277 1933 
C 3277 2925 2778 3565 1888 3565 
C 1094 3565 333 2867 333 1734 
C 333 589 1069 -83 1997 -83 
z
M 902 2016 
C 973 2707 1408 3098 1901 3098 
C 2445 3098 2765 2720 2765 2016 
L 902 2016 
z
" transform="scale(0.015625)"/>
       <path id="NotoSansCJKjp-Regular-6e" d="M 589 0 
L 1178 0 
L 1178 2522 
C 1523 2874 1766 3053 2125 3053 
C 2586 3053 2784 2778 2784 2125 
L 2784 0 
L 3366 0 
L 3366 2202 
C 3366 3085 3034 3565 2304 3565 
C 1830 3565 1466 3302 1139 2970 
L 1126 2970 
L 1069 3475 
L 589 3475 
L 589 0 
z
" transform="scale(0.015625)"/>
       <path id="NotoSansCJKjp-Regular-73" d="M 1498 -83 
C 2317 -83 2758 384 2758 947 
C 2758 1606 2208 1811 1702 2003 
C 1312 2150 954 2278 954 2605 
C 954 2880 1158 3110 1600 3110 
C 1907 3110 2150 2976 2387 2803 
L 2669 3168 
C 2406 3386 2022 3565 1594 3565 
C 832 3565 397 3130 397 2579 
C 397 1984 922 1754 1408 1574 
C 1792 1434 2202 1267 2202 915 
C 2202 614 1978 371 1517 371 
C 1101 371 794 538 486 787 
L 205 397 
C 531 122 1005 -83 1498 -83 
z
" transform="scale(0.015625)"/>
       <path id="NotoSansCJKjp-Regular-2f" d="M 70 -1146 
L 499 -1146 
L 2413 5082 
L 1990 5082 
L 70 -1146 
z
" transform="scale(0.015625)"/>
       <path id="NotoSansCJKjp-Regular-ff09" d="M 1952 2432 
C 1952 3680 1446 4698 678 5478 
L 294 5280 
C 1030 4518 1485 3571 1485 2432 
C 1485 1293 1030 346 294 -416 
L 678 -614 
C 1446 166 1952 1184 1952 2432 
z
" transform="scale(0.015625)"/>
      </defs>
      <use xlink:href="#NotoSansCJKjp-Regular-89e3"/>
      <use xlink:href="#NotoSansCJKjp-Regular-7801" transform="translate(99.999985 0)"/>
      <use xlink:href="#NotoSansCJKjp-Regular-541e" transform="translate(199.999969 0)"/>
      <use xlink:href="#NotoSansCJKjp-Regular-5410" transform="translate(299.999954 0)"/>
      <use xlink:href="#NotoSansCJKjp-Regular-ff08" transform="translate(399.999939 0)"/>
      <use xlink:href="#NotoSansCJKjp-Regular-74" transform="translate(499.999924 0)"/>
      <use xlink:href="#NotoSansCJKjp-Regular-6f" transform="translate(537.699921 0)"/>
      <use xlink:href="#NotoSansCJKjp-Regular-6b" transform="translate(598.299911 0)"/>
      <use xlink:href="#NotoSansCJKjp-Regular-65" transform="translate(653.499908 0)"/>
      <use xlink:href="#NotoSansCJKjp-Regular-6e" transform="translate(708.899902 0)"/>
      <use xlink:href="#NotoSansCJKjp-Regular-73" transform="translate(769.899887 0)"/>
      <use xlink:href="#NotoSansCJKjp-Regular-2f" transform="translate(816.699875 0)"/>
      <use xlink:href="#NotoSansCJKjp-Regular-73" transform="translate(855.899872 0)"/>
      <use xlink:href="#NotoSansCJKjp-Regular-ff09" transform="translate(902.69986 0)"/>
     </g>
    </g>
   </g>
   <g id="LineCollection_2">
    <path d="M 66.448729 188.363182 
L 66.448729 171.433563 
" clip-path="url(#pe411fff0f6)" style="fill: none; stroke: #4d4d4d; stroke-width: 1.8"/>
    <path d="M 102.88891 164.502833 
L 102.88891 153.76963 
" clip-path="url(#pe411fff0f6)" style="fill: none; stroke: #4d4d4d; stroke-width: 1.8"/>
    <path d="M 139.329091 147.327726 
L 139.329091 134.251187 
" clip-path="url(#pe411fff0f6)" style="fill: none; stroke: #4d4d4d; stroke-width: 1.8"/>
    <path d="M 175.769272 134.41387 
L 175.769272 125.158607 
" clip-path="url(#pe411fff0f6)" style="fill: none; stroke: #4d4d4d; stroke-width: 1.8"/>
    <path d="M 212.209453 104.403102 
L 212.209453 99.545886 
" clip-path="url(#pe411fff0f6)" style="fill: none; stroke: #4d4d4d; stroke-width: 1.8"/>
    <path d="M 248.649634 105.678134 
L 248.649634 86.431608 
" clip-path="url(#pe411fff0f6)" style="fill: none; stroke: #4d4d4d; stroke-width: 1.8"/>
    <path d="M 285.089815 120.796963 
L 285.089815 65.486399 
" clip-path="url(#pe411fff0f6)" style="fill: none; stroke: #4d4d4d; stroke-width: 1.8"/>
    <path d="M 321.529996 108.715691 
L 321.529996 74.20881 
" clip-path="url(#pe411fff0f6)" style="fill: none; stroke: #4d4d4d; stroke-width: 1.8"/>
    <path d="M 357.970178 29.639371 
L 357.970178 15.826818 
" clip-path="url(#pe411fff0f6)" style="fill: none; stroke: #4d4d4d; stroke-width: 1.8"/>
   </g>
   <g id="line2d_37">
    <g clip-path="url(#pe411fff0f6)">
     <use xlink:href="#m23fc84664e" x="66.448729" y="188.363182" style="fill: #4d4d4d; stroke: #4d4d4d"/>
     <use xlink:href="#m23fc84664e" x="102.88891" y="164.502833" style="fill: #4d4d4d; stroke: #4d4d4d"/>
     <use xlink:href="#m23fc84664e" x="139.329091" y="147.327726" style="fill: #4d4d4d; stroke: #4d4d4d"/>
     <use xlink:href="#m23fc84664e" x="175.769272" y="134.41387" style="fill: #4d4d4d; stroke: #4d4d4d"/>
     <use xlink:href="#m23fc84664e" x="212.209453" y="104.403102" style="fill: #4d4d4d; stroke: #4d4d4d"/>
     <use xlink:href="#m23fc84664e" x="248.649634" y="105.678134" style="fill: #4d4d4d; stroke: #4d4d4d"/>
     <use xlink:href="#m23fc84664e" x="285.089815" y="120.796963" style="fill: #4d4d4d; stroke: #4d4d4d"/>
     <use xlink:href="#m23fc84664e" x="321.529996" y="108.715691" style="fill: #4d4d4d; stroke: #4d4d4d"/>
     <use xlink:href="#m23fc84664e" x="357.970178" y="29.639371" style="fill: #4d4d4d; stroke: #4d4d4d"/>
    </g>
   </g>
   <g id="line2d_38">
    <g clip-path="url(#pe411fff0f6)">
     <use xlink:href="#m23fc84664e" x="66.448729" y="171.433563" style="fill: #4d4d4d; stroke: #4d4d4d"/>
     <use xlink:href="#m23fc84664e" x="102.88891" y="153.76963" style="fill: #4d4d4d; stroke: #4d4d4d"/>
     <use xlink:href="#m23fc84664e" x="139.329091" y="134.251187" style="fill: #4d4d4d; stroke: #4d4d4d"/>
     <use xlink:href="#m23fc84664e" x="175.769272" y="125.158607" style="fill: #4d4d4d; stroke: #4d4d4d"/>
     <use xlink:href="#m23fc84664e" x="212.209453" y="99.545886" style="fill: #4d4d4d; stroke: #4d4d4d"/>
     <use xlink:href="#m23fc84664e" x="248.649634" y="86.431608" style="fill: #4d4d4d; stroke: #4d4d4d"/>
     <use xlink:href="#m23fc84664e" x="285.089815" y="65.486399" style="fill: #4d4d4d; stroke: #4d4d4d"/>
     <use xlink:href="#m23fc84664e" x="321.529996" y="74.20881" style="fill: #4d4d4d; stroke: #4d4d4d"/>
     <use xlink:href="#m23fc84664e" x="357.970178" y="15.826818" style="fill: #4d4d4d; stroke: #4d4d4d"/>
    </g>
   </g>
   <g id="line2d_39">
    <path d="M 66.448729 179.898372 
L 102.88891 159.136231 
L 139.329091 140.789457 
L 175.769272 129.786238 
L 212.209453 101.974494 
L 248.649634 96.054871 
L 285.089815 93.141681 
L 321.529996 91.462251 
L 357.970178 22.733095 
" clip-path="url(#pe411fff0f6)" style="fill: none; stroke: #4d4d4d; stroke-width: 1.8; stroke-linecap: square"/>
    <g clip-path="url(#pe411fff0f6)">
     <use xlink:href="#mc20ecf48d0" x="66.448729" y="179.898372" style="fill: #4d4d4d; stroke: #4d4d4d; stroke-linejoin: miter"/>
     <use xlink:href="#mc20ecf48d0" x="102.88891" y="159.136231" style="fill: #4d4d4d; stroke: #4d4d4d; stroke-linejoin: miter"/>
     <use xlink:href="#mc20ecf48d0" x="139.329091" y="140.789457" style="fill: #4d4d4d; stroke: #4d4d4d; stroke-linejoin: miter"/>
     <use xlink:href="#mc20ecf48d0" x="175.769272" y="129.786238" style="fill: #4d4d4d; stroke: #4d4d4d; stroke-linejoin: miter"/>
     <use xlink:href="#mc20ecf48d0" x="212.209453" y="101.974494" style="fill: #4d4d4d; stroke: #4d4d4d; stroke-linejoin: miter"/>
     <use xlink:href="#mc20ecf48d0" x="248.649634" y="96.054871" style="fill: #4d4d4d; stroke: #4d4d4d; stroke-linejoin: miter"/>
     <use xlink:href="#mc20ecf48d0" x="285.089815" y="93.141681" style="fill: #4d4d4d; stroke: #4d4d4d; stroke-linejoin: miter"/>
     <use xlink:href="#mc20ecf48d0" x="321.529996" y="91.462251" style="fill: #4d4d4d; stroke: #4d4d4d; stroke-linejoin: miter"/>
     <use xlink:href="#mc20ecf48d0" x="357.970178" y="22.733095" style="fill: #4d4d4d; stroke: #4d4d4d; stroke-linejoin: miter"/>
    </g>
   </g>
   <g id="patch_7">
    <path d="M 51.872656 196.99 
L 51.872656 7.2 
" style="fill: none; stroke: #000000; stroke-width: 0.8; stroke-linejoin: miter; stroke-linecap: square"/>
   </g>
   <g id="patch_8">
    <path d="M 372.54625 196.99 
L 372.54625 7.2 
" style="fill: none; stroke: #000000; stroke-width: 0.8; stroke-linejoin: miter; stroke-linecap: square"/>
   </g>
   <g id="patch_9">
    <path d="M 51.872656 196.99 
L 372.54625 196.99 
" style="fill: none; stroke: #000000; stroke-width: 0.8; stroke-linejoin: miter; stroke-linecap: square"/>
   </g>
   <g id="patch_10">
    <path d="M 51.872656 7.2 
L 372.54625 7.2 
" style="fill: none; stroke: #000000; stroke-width: 0.8; stroke-linejoin: miter; stroke-linecap: square"/>
   </g>
  </g>
 </g>
 <defs>
  <clipPath id="pe411fff0f6">
   <rect x="51.872656" y="7.2" width="320.673594" height="189.79"/>
  </clipPath>
 </defs>
</svg>
